<?xml version="1.0" encoding="utf-8"?>
<svg viewBox="0 0 500 500" xmlns="http://www.w3.org/2000/svg" xmlns:xlink="http://www.w3.org/1999/xlink">
  <defs>
    <radialGradient id="radial-gradient" cx="1275.36" cy="455.51" r="0.9" gradientUnits="userSpaceOnUse" gradientTransform="matrix(1, 0, 0, 1, -62.454513, -208.652328)">
      <stop offset="0" stop-color="#fff"/>
      <stop offset="1"/>
    </radialGradient>
    <radialGradient id="radial-gradient-2" cx="1276.45" cy="454.07" r="1.6" gradientTransform="matrix(1, 0, 0, 1, -226.186401, -296.866699)" xlink:href="#radial-gradient"/>
    <radialGradient id="radial-gradient-3" cx="1278.23" cy="455.31" r="1.92" gradientTransform="matrix(1, 0, 0, 1, -226.186401, -296.866699)" xlink:href="#radial-gradient"/>
    <radialGradient id="radial-gradient-4" cx="1278.83" cy="452.98" r="2.9" gradientTransform="matrix(1, 0, 0, 1, -226.186401, -296.866699)" xlink:href="#radial-gradient"/>
    <radialGradient id="radial-gradient-5" cx="1278.17" cy="453.68" r="1.2" gradientTransform="matrix(1, 0, 0, 1, -226.186401, -296.866699)" xlink:href="#radial-gradient"/>
    <radialGradient id="radial-gradient-6" cx="1277.46" cy="453.42" r="1.94" gradientTransform="matrix(1, 0, 0, 1, -226.186401, -296.866699)" xlink:href="#radial-gradient"/>
    <radialGradient id="radial-gradient-7" cx="1279.3" cy="453.13" r="0.65" gradientTransform="matrix(1, 0, 0, 1, -226.186401, -296.866699)" xlink:href="#radial-gradient"/>
    <radialGradient id="radial-gradient-8" cx="1279.04" cy="453.31" r="0.75" gradientTransform="matrix(1, 0, 0, 1, -226.186401, -296.866699)" xlink:href="#radial-gradient"/>
    <radialGradient id="radial-gradient-9" cx="1117.84" cy="267.81" r="0" gradientTransform="matrix(1, 0, 0, 1, 0, 0)" xlink:href="#radial-gradient"/>
    <radialGradient id="radial-gradient-10" cx="1279.26" cy="453.55" r="1.15" gradientTransform="matrix(1, 0, 0, 1, -226.186401, -296.866699)" xlink:href="#radial-gradient"/>
  </defs>
  <path class="cls-1" d="M 669.185 275.558 C 669.185 275.558 669.185 275.558 669.185 275.558 C 669.185 275.558 669.235 275.558 669.245 275.558 C 669.245 275.558 669.245 275.558 669.245 275.558 L 669.295 275.558 L 669.445 275.628 C 669.445 275.628 669.445 275.628 669.445 275.628 C 669.445 275.628 669.385 275.628 669.385 275.628 C 669.475 273.628 670.165 257.218 671.385 228.398 C 671.325 228.268 671.265 228.148 671.195 228.028 C 669.965 257.038 669.275 273.498 669.185 275.558 Z" style="fill: none;"/>
  <path class="cls-1" d="M 694.915 307.968 C 686.229 300.084 678.847 290.873 673.045 280.678 C 672.465 279.678 672.045 278.588 671.445 277.548 C 671.065 276.828 670.725 276.058 669.805 275.858 L 669.805 275.378 C 669.805 275.528 669.735 275.678 669.705 275.818 C 669.705 275.818 669.705 275.818 669.705 275.818 C 669.667 275.788 669.623 275.767 669.575 275.758 C 670.495 275.958 670.835 276.758 671.215 277.448 C 671.755 278.448 672.215 279.558 672.805 280.578 C 678.615 290.771 685.999 299.981 694.685 307.868 C 705.919 318.027 718.953 325.997 733.115 331.368 C 734.002 331.708 734.902 332.041 735.815 332.368 C 734.975 332.068 734.145 331.768 733.315 331.448 C 719.165 326.08 706.142 318.117 694.915 307.968 Z" style="fill: none;"/>
  <path class="cls-1" d="M 697.185 92.428 L 697.305 92.288 L 697.105 92.348 L 697.185 92.428 Z" style="fill: none;"/>
  <path class="cls-1" d="M 698.485 91.958 C 699.395 91.518 699.435 91.358 698.875 90.328 C 698.409 90.731 698.248 91.385 698.475 91.958 C 698.095 92.108 697.635 92.008 697.305 92.288 L 698.475 91.968 L 698.485 91.958 Z" style="fill: none;"/>
  <path class="cls-1" d="M 698.945 90.248 L 698.885 90.248 L 698.885 90.298 L 698.885 90.348 L 698.965 90.258 L 698.945 90.248 Z" style="fill: none;"/>
  <path class="cls-1" d="M 698.965 90.138 C 699.185 90.338 699.105 90.058 698.965 90.138 Z" style="fill: none;"/>
  <path class="cls-1" d="M 713.895 89.528 C 713.845 89.268 713.805 89.008 713.765 88.748 L 713.875 89.558 L 713.895 89.528 Z" style="fill: none;"/>
  <path class="cls-1" d="M 698.925 90.108 C 698.925 90.108 698.805 90.108 698.735 90.168 L 698.885 90.228 C 698.907 90.193 698.934 90.163 698.965 90.138 L 698.925 90.108 Z" style="fill: none;"/>
  <path class="cls-1" style="fill: none;"/>
  <path class="cls-1" d="M 666.545 270.888 L 666.545 270.798 C 666.545 270.798 666.545 270.798 666.545 270.798 L 666.425 270.798 C 666.425 270.798 666.425 270.798 666.425 270.798 L 666.545 270.888 Z" style="fill: none;"/>
  <path class="cls-1" d="M 681.055 336.858 C 675.463 331.506 670.294 325.728 665.595 319.578 C 651.649 301.359 642.258 280.071 638.205 257.488 C 636.25 246.761 635.482 235.852 635.915 224.958 C 637.161 194.273 648.117 164.776 667.205 140.718 C 667.375 140.498 667.725 139.308 668.775 138.828 C 669.107 138.675 669.469 138.596 669.835 138.598 L 669.895 138.538 C 669.443 138.49 668.987 138.566 668.575 138.758 C 667.575 139.238 667.175 140.428 667.005 140.638 C 647.921 164.701 636.965 194.2 635.715 224.888 C 635.277 235.782 636.045 246.692 638.005 257.418 C 642.058 279.999 651.445 301.286 665.385 319.508 C 670.091 325.656 675.263 331.433 680.855 336.788 C 693.857 349.205 709.033 359.123 725.625 366.048 C 729.092 367.494 732.592 368.804 736.125 369.978 C 732.665 368.828 729.225 367.548 725.835 366.118 C 709.237 359.2 694.056 349.281 681.055 336.858 Z" style="fill: none;"/>
  <path class="cls-1" d="M 1315.385 -23.162 C 1315.424 -23.162 1315.448 -23.204 1315.428 -23.237 C 1315.419 -23.253 1315.403 -23.262 1315.385 -23.262 C 1315.347 -23.262 1315.323 -23.221 1315.342 -23.187 C 1315.351 -23.172 1315.367 -23.162 1315.385 -23.162 Z" style="fill: none;"/>
  <path class="cls-1" d="M 1112.115 251.558 C 1111.645 248.848 1110.395 247.038 1106.905 243.638 C 1104.57 241.489 1101.927 239.699 1099.065 238.328 C 1100.535 237.328 1100.655 237.228 1102.145 237.138 C 1107.883 236.714 1113.652 237.162 1119.255 238.468 C 1122.05 239.153 1124.804 239.994 1127.505 240.988 C 1124.736 239.965 1121.912 239.1 1119.045 238.398 C 1113.445 237.092 1107.68 236.644 1101.945 237.068 C 1100.455 237.158 1100.335 237.238 1098.865 238.258 C 1101.729 239.626 1104.372 241.416 1106.705 243.568 C 1110.195 246.968 1111.435 248.778 1111.915 251.488 C 1111.717 251.528 1111.513 251.528 1111.315 251.488 C 1111.57 251.584 1111.847 251.608 1112.115 251.558 Z" style="fill: none;"/>
  <path class="cls-1" d="M 1216.655 262.478 L 1216.435 262.588 L 1216.635 262.588 L 1216.635 262.528 L 1216.775 262.528 C 1216.835 262.348 1216.695 262.348 1216.655 262.478 Z" style="fill: none;"/>
  <path class="cls-1" d="M 1067.265 241.228 C 1074.615 241.898 1082.005 242.148 1089.265 243.338 C 1093.503 243.974 1097.674 244.998 1101.725 246.398 L 1101.655 246.398 C 1097.565 244.972 1093.35 243.934 1089.065 243.298 C 1081.755 242.108 1074.375 241.858 1067.065 241.188 C 1060.661 240.658 1054.308 239.625 1048.065 238.098 C 1045.652 237.484 1043.285 236.794 1040.965 236.028 C 1043.345 236.828 1045.785 237.548 1048.265 238.168 C 1054.508 239.684 1060.861 240.708 1067.265 241.228 Z" style="fill: none;"/>
  <path class="cls-1" d="M 1202.545 236.738 C 1204.545 235.738 1206.355 234.198 1208.545 233.378 C 1208.545 233.308 1208.625 233.248 1208.655 233.178 C 1206.355 233.978 1204.515 235.578 1202.375 236.668 C 1191.755 242.262 1179.898 245.096 1167.895 244.908 C 1162.639 244.843 1157.422 243.997 1152.415 242.398 C 1157.482 244.041 1162.768 244.911 1168.095 244.978 C 1180.087 245.158 1191.932 242.324 1202.545 236.738 Z" style="fill: none;"/>
  <path class="cls-1" d="M 1151.265 252.248 C 1151.411 252.089 1151.468 251.867 1151.415 251.658 C 1150.945 250.588 1150.415 249.518 1149.905 248.488 C 1148.595 246.008 1147.225 243.558 1145.905 241.078 C 1145.795 240.756 1145.737 240.418 1145.735 240.078 C 1145.97 239.904 1146.27 239.842 1146.555 239.908 C 1146.228 239.759 1145.846 239.797 1145.555 240.008 C 1145.557 240.348 1145.615 240.686 1145.725 241.008 C 1147.045 243.488 1148.405 245.938 1149.725 248.418 C 1150.275 249.418 1150.725 250.518 1151.235 251.588 C 1151.283 251.797 1151.227 252.016 1151.085 252.178 C 1150.932 252.278 1150.745 252.314 1150.565 252.278 L 1150.655 252.278 C 1150.853 252.357 1151.076 252.346 1151.265 252.248 Z" style="fill: none;"/>
  <path class="cls-1" d="M 1216.805 262.518 C 1216.735 262.878 1217.025 262.638 1216.805 262.518 Z" style="fill: none;"/>
  <path class="cls-1" d="M 1213.135 264.648 L 1213.135 264.558 L 1213.015 264.558 L 1213.135 264.648 Z" style="fill: none;"/>
  <path class="cls-1" d="M 1213.175 264.558 C 1214.175 264.498 1214.815 264.138 1214.755 262.988 C 1214.545 263.758 1213.415 263.748 1213.175 264.558 Z" style="fill: none;"/>
  <path class="cls-1" d="M 1214.755 262.988 L 1214.875 262.988 L 1214.765 262.988 L 1214.755 262.988 Z" style="fill: none;"/>
  <path class="cls-1" d="M 1216.435 262.588 L 1214.875 262.958 C 1215.422 263.018 1215.974 262.888 1216.435 262.588 Z" style="fill: none;"/>
  <path class="cls-1" d="M 1251.385 177.608 C 1251.065 177.778 1251.385 177.858 1251.385 177.608 Z" style="fill: none;"/>
  <path class="cls-1" d="M 1251.395 177.588 C 1251.495 177.588 1251.395 177.428 1251.395 177.508 L 1251.395 177.608 L 1251.395 177.588 Z" style="fill: none;"/>
  <path class="cls-1" d="M 1251.315 177.568 C 1251.315 177.568 1251.315 177.568 1251.315 177.508 C 1251.32 177.491 1251.32 177.474 1251.315 177.458 L 1251.235 177.578 L 1251.315 177.568 Z" style="fill: none;"/>
  <path class="cls-1" d="M 1251.265 177.578 C 1250.795 177.728 1250.685 178.148 1250.585 178.578 L 1250.445 178.648 C 1250.502 178.643 1250.559 178.643 1250.615 178.648 C 1250.835 178.348 1251.055 177.948 1251.265 177.578 Z" style="fill: none;"/>
  <path class="cls-1" d="M 1249.925 178.928 L 1250.445 178.658 C 1250.234 178.638 1250.03 178.743 1249.925 178.928 Z" style="fill: none;"/>
  <path class="cls-1" d="M 1249.925 178.928 L 1249.725 179.038 L 1249.805 179.118 L 1249.925 178.928 Z" style="fill: none;"/>
  <path class="cls-1" d="M 1274.605 95.918 C 1274.475 95.188 1274.345 94.458 1274.215 93.748 C 1273.899 94.484 1274.052 95.338 1274.605 95.918 Z" style="fill: none;"/>
  <path class="cls-1" style="fill: none;"/>
  <path class="cls-1" d="M 1273.045 89.348 C 1272.335 91.078 1272.435 92.598 1274.175 93.668 C 1273.715 92.218 1272.905 90.898 1273.045 89.348 Z" style="fill: none;"/>
  <path class="cls-1" d="M 1274.715 96.268 C 1274.715 96.508 1274.715 96.748 1274.715 96.988 C 1274.715 97.228 1274.845 97.408 1275.075 97.238 C 1275.122 97.143 1275.122 97.032 1275.075 96.938 C 1274.965 96.708 1274.835 96.488 1274.715 96.268 Z" style="fill: none;"/>
  <path class="cls-1" d="M 1274.235 93.688 L 1274.175 93.688 L 1274.175 93.768 L 1274.235 93.688 Z" style="fill: none;"/>
  <path class="cls-1" d="M 1274.605 95.918 C 1274.6 95.988 1274.6 96.058 1274.605 96.128 L 1274.685 96.038 L 1274.605 95.918 Z" style="fill: none;"/>
  <path class="cls-1" d="M 1274.645 96.128 C 1274.645 96.128 1274.695 96.218 1274.715 96.268 C 1274.71 96.194 1274.71 96.121 1274.715 96.048 L 1274.645 96.128 Z" style="fill: none;"/>
  <polygon class="cls-1" points="1276.205 101.908 1276.365 101.958 1276.325 101.728 1276.205 101.908" style="fill: none;"/>
  <path class="cls-1" d="M 1079.415 279.268 C 1092.615 280.575 1105.921 280.37 1119.075 278.658 C 1136.657 276.46 1153.813 271.65 1169.975 264.388 C 1177.053 261.26 1183.82 257.469 1190.185 253.068 C 1198.506 247.146 1206.247 240.45 1213.305 233.068 C 1217.676 228.648 1221.811 224.001 1225.695 219.148 C 1226.703 218.001 1227.953 217.093 1229.355 216.488 C 1233.525 214.358 1237.745 212.308 1241.935 210.208 C 1248.742 206.801 1255.552 203.391 1262.365 199.978 C 1263.238 199.39 1264.24 199.023 1265.285 198.908 L 1265.345 198.828 C 1264.204 198.878 1263.101 199.252 1262.165 199.908 C 1255.345 203.308 1248.535 206.718 1241.735 210.138 C 1237.545 212.238 1233.325 214.288 1229.155 216.418 C 1227.752 217.02 1226.502 217.929 1225.495 219.078 C 1221.611 223.931 1217.476 228.578 1213.105 232.998 C 1206.046 240.382 1198.301 247.079 1189.975 252.998 C 1183.614 257.414 1176.847 261.214 1169.765 264.348 C 1153.604 271.604 1136.453 276.414 1118.875 278.618 C 1105.721 280.33 1092.415 280.535 1079.215 279.228 C 1071.282 278.483 1063.419 277.126 1055.695 275.168 C 1052.062 274.228 1048.492 273.134 1044.985 271.888 C 1048.565 273.154 1052.202 274.271 1055.895 275.238 C 1063.619 277.19 1071.482 278.537 1079.415 279.268 Z" style="fill: none;"/>
  <path class="cls-3" d="M 1213.135 246.648 L 1213.135 246.558 L 1213.015 246.558 L 1213.135 246.648 Z" style="fill: none; stroke: url(#radial-gradient); stroke-miterlimit: 10;"/>
  <path class="cls-5" d="M 1213.175 246.558 C 1214.175 246.498 1214.815 246.138 1214.755 244.988 C 1214.545 245.758 1213.415 245.758 1213.175 246.558 Z" style="fill: none; stroke: url(#radial-gradient-2); stroke-miterlimit: 10;"/>
  <path class="cls-7" d="M 1216.645 244.538 L 1216.645 244.478 C 1216.647 244.501 1216.647 244.524 1216.645 244.548 L 1216.645 244.538 Z" style="fill: none; stroke: url(#radial-gradient-3); stroke-miterlimit: 10;"/>
  <path class="cls-9" d="M 1216.435 244.588 L 1214.875 244.958 C 1215.422 245.018 1215.974 244.888 1216.435 244.588 Z" style="fill: none; stroke: url(#radial-gradient-4); stroke-miterlimit: 10;"/>
  <path class="cls-11" d="M 1214.755 244.988 L 1214.875 244.988 L 1214.755 244.988 Z" style="fill: none; stroke: url(#radial-gradient-5); stroke-miterlimit: 10;"/>
  <path class="cls-13" d="M 1216.655 244.478 L 1216.435 244.588 L 1216.635 244.588 C 1216.65 244.553 1216.657 244.515 1216.655 244.478 Z" style="fill: none; stroke: url(#radial-gradient-6); stroke-miterlimit: 10;"/>
  <path class="cls-15" d="M 1216.805 244.518 C 1216.735 244.878 1217.025 244.638 1216.805 244.518 Z" style="fill: none; stroke: url(#radial-gradient-7); stroke-miterlimit: 10;"/>
  <path class="cls-17" d="M 1216.805 244.518 C 1216.805 244.368 1216.695 244.348 1216.655 244.518 L 1216.805 244.518 Z" style="fill: none; stroke: url(#radial-gradient-8); stroke-miterlimit: 10;"/>
  <polygon class="cls-19" points="1216.635 244.548 1216.645 244.548 1216.645 244.548 1216.635 244.548" style="fill: none; stroke: url(#radial-gradient-9); stroke-miterlimit: 10;"/>
  <path class="cls-21" d="M 1216.635 244.548 C 1216.637 244.524 1216.637 244.501 1216.635 244.478 C 1216.638 244.501 1216.638 244.524 1216.635 244.548 Z" style="fill: none; stroke: url(#radial-gradient-10); stroke-miterlimit: 10;"/>
  <path class="cls-22" d="M 132.405 208.598 C 132.405 208.598 132.465 208.598 132.465 208.598 C 132.465 208.598 132.465 208.598 132.465 208.598 L 132.535 208.598 C 132.583 208.607 132.627 208.628 132.665 208.658 C 132.665 208.658 132.665 208.658 132.665 208.658 C 132.665 208.518 132.735 208.368 132.765 208.218 L 132.765 208.698 C 133.685 208.898 134.025 209.698 134.405 210.388 C 134.955 211.388 135.405 212.498 136.005 213.518 C 141.807 223.713 149.189 232.924 157.875 240.808 C 169.109 250.967 182.143 258.937 196.305 264.308 C 197.135 264.628 197.965 264.928 198.805 265.228 C 211.459 269.685 224.687 272.305 238.085 273.008 C 247.673 273.601 257.289 273.584 266.875 272.958 C 277.622 272.279 288.296 270.738 298.795 268.348 C 313.903 264.997 328.395 259.305 341.745 251.478 C 348.979 247.133 355.759 242.074 361.985 236.378 C 363.149 235.492 364.113 234.371 364.815 233.088 L 364.545 233.348 C 362.395 234.168 360.615 235.668 358.545 236.708 C 347.92 242.301 336.061 245.134 324.055 244.948 C 318.728 244.881 313.442 244.011 308.375 242.368 C 306.756 241.835 305.167 241.214 303.615 240.508 C 303.27 240.267 302.902 240.063 302.515 239.898 C 302.23 239.832 301.93 239.894 301.695 240.068 C 301.697 240.408 301.755 240.746 301.865 241.068 C 303.185 243.548 304.555 245.998 305.865 248.478 C 306.415 249.478 306.865 250.578 307.375 251.648 C 307.428 251.857 307.371 252.079 307.225 252.238 C 307.037 252.356 306.805 252.381 306.595 252.308 L 306.505 252.308 C 306.115 252.128 305.735 251.898 305.355 251.688 C 302.595 250.158 299.855 248.558 297.055 247.098 C 292.686 244.775 288.174 242.735 283.545 240.988 C 280.844 239.994 278.09 239.153 275.295 238.468 C 269.692 237.162 263.923 236.714 258.185 237.138 C 256.695 237.228 256.575 237.308 255.105 238.328 C 257.967 239.699 260.61 241.489 262.945 243.638 C 266.435 247.038 267.685 248.848 268.155 251.558 C 267.885 251.602 267.608 251.57 267.355 251.468 C 266.891 251.212 266.458 250.903 266.065 250.548 C 263.553 248.817 260.818 247.434 257.935 246.438 L 257.805 246.438 C 253.742 245.026 249.558 243.991 245.305 243.348 C 238.005 242.158 230.615 241.908 223.305 241.238 C 216.901 240.708 210.548 239.675 204.305 238.148 C 201.825 237.528 199.385 236.808 197.005 236.008 C 180.934 230.738 166.753 220.888 156.205 207.668 C 146.581 195.639 139.719 181.642 136.105 166.668 C 135.675 164.938 135.585 163.068 134.465 161.098 L 134.465 161.398 C 133.255 190.218 132.565 206.578 132.465 208.628 L 132.405 208.598 Z" style="filter: none; fill: rgb(192, 192, 192);"/>
  <path class="cls-22" d="M 418.365 200.008 C 411.545 203.408 404.735 206.818 397.935 210.238 C 393.745 212.338 389.525 214.388 385.355 216.518 C 383.953 217.123 382.703 218.031 381.695 219.178 C 377.811 224.031 373.676 228.678 369.305 233.098 C 362.247 240.48 354.506 247.176 346.185 253.098 C 339.817 257.475 333.051 261.242 325.975 264.348 C 309.813 271.61 292.657 276.42 275.075 278.618 C 261.921 280.33 248.615 280.535 235.415 279.228 C 227.482 278.487 219.618 277.13 211.895 275.168 C 208.208 274.208 204.572 273.091 200.985 271.818 C 183.98 265.731 168.461 256.102 155.455 243.568 C 148.728 237.015 142.877 229.62 138.045 221.568 C 134.705 215.935 131.928 209.986 129.755 203.808 C 129.755 203.808 129.755 203.808 129.755 203.808 L 129.545 203.808 L 129.395 203.808 C 129.395 203.808 129.395 203.808 129.395 203.808 C 129.395 203.808 129.395 203.808 129.395 203.808 C 127.035 174.758 124.045 163.118 124.045 163.118 C 121.625 148.578 120.375 146.798 120.125 138.218 C 119.873 127.084 120.829 115.955 122.975 105.028 C 124.822 94.903 127.59 84.968 131.245 75.348 C 131.582 73.99 132.214 72.724 133.095 71.638 L 132.835 71.638 C 132.469 71.636 132.107 71.715 131.775 71.868 C 130.775 72.348 130.375 73.538 130.205 73.758 C 111.117 97.816 100.161 127.313 98.915 157.998 C 98.482 168.892 99.25 179.801 101.205 190.528 C 105.258 213.111 114.649 234.399 128.595 252.618 C 133.294 258.768 138.463 264.546 144.055 269.898 C 157.056 282.321 172.237 292.24 188.835 299.158 C 192.225 300.588 195.665 301.868 199.125 303.018 C 209.775 306.566 220.809 308.835 231.995 309.778 C 258.056 312.081 284.259 307.383 307.895 296.168 C 318.046 291.294 327.617 285.293 336.425 278.278 C 344.773 271.798 352.281 264.304 358.775 255.968 C 360.969 253.065 363.557 250.484 366.465 248.298 C 367.905 247.218 369.325 246.098 370.755 244.998 C 374.142 242.378 377.498 239.711 380.825 236.998 C 389.365 230.018 397.698 222.794 405.825 215.328 C 410.625 211.02 415.172 206.439 419.445 201.608 C 420.115 200.828 420.725 200.008 421.555 198.958 L 421.295 198.958 C 420.248 199.066 419.243 199.426 418.365 200.008 Z" style="fill: rgb(192, 192, 192);"/>
</svg>